<svg xmlns="http://www.w3.org/2000/svg" width="880" height="300" viewBox="0 0 880 300" role="img" aria-label="8063 contributions in the last year; current streak 5 days; longest streak 25 days">
<style>
text{font-family:ui-monospace,SFMono-Regular,Menlo,Consolas,monospace;fill:#565f68}
.v{font-family:-apple-system,"Segoe UI",Helvetica,Arial,sans-serif;font-weight:700;font-size:26px;fill:#0b0d10}
.l{font-size:11px} .t{font-size:10px}
.line{stroke-dasharray:4000;stroke-dashoffset:4000;animation:draw 2.2s ease-out forwards}
.fade{opacity:0;animation:fade .8s 1.4s ease-out forwards}
@keyframes draw{to{stroke-dashoffset:0}} @keyframes fade{to{opacity:1}}
@media (prefers-reduced-motion:reduce){.line{animation:none;stroke-dashoffset:0}.fade{animation:none;opacity:1}}
</style>
<defs>
<linearGradient id="stroke" x1="0" x2="1"><stop offset="0" stop-color="#0d7d8c"/><stop offset="1" stop-color="#5757d6"/></linearGradient>
<linearGradient id="fill" x1="0" y1="0" x2="0" y2="1"><stop offset="0" stop-color="#0d7d8c" stop-opacity=".35"/><stop offset="1" stop-color="#0d7d8c" stop-opacity="0"/></linearGradient>
</defs>
<rect x=".5" y=".5" width="879" height="299" rx="12" fill="#ffffff" stroke="#e3e6e8"/>
<text class="v" x="28.0" y="58">8,063</text><text class="l" x="28.0" y="78">contributions · past year</text>
<line x1="220.0" x2="220.0" y1="28" y2="78" stroke="#e3e6e8"/>
<text class="v" x="234.0" y="58">5 d</text><text class="l" x="234.0" y="78">current streak</text>
<line x1="426.0" x2="426.0" y1="28" y2="78" stroke="#e3e6e8"/>
<text class="v" x="440.0" y="58">25 d</text><text class="l" x="440.0" y="78">longest streak</text>
<line x1="632.0" x2="632.0" y1="28" y2="78" stroke="#e3e6e8"/>
<text class="v" x="646.0" y="58">368</text><text class="l" x="646.0" y="78">busiest day · Sep 11</text>
<line x1="48" x2="852" y1="260.0" y2="260.0" stroke="#e3e6e8" stroke-dasharray=""/>
<text class="t" x="40" y="263.0" text-anchor="end">0</text>
<line x1="48" x2="852" y1="189.0" y2="189.0" stroke="#e3e6e8" stroke-dasharray="2 4"/>
<text class="t" x="40" y="192.0" text-anchor="end">355</text>
<line x1="48" x2="852" y1="118.0" y2="118.0" stroke="#e3e6e8" stroke-dasharray="2 4"/>
<text class="t" x="40" y="121.0" text-anchor="end">710</text>
<text class="t" x="63.5" y="282" text-anchor="middle">Oct</text>
<text class="t" x="125.3" y="282" text-anchor="middle">Nov</text>
<text class="t" x="202.6" y="282" text-anchor="middle">Dec</text>
<text class="t" x="264.5" y="282" text-anchor="middle">Jan</text>
<text class="t" x="326.3" y="282" text-anchor="middle">Feb</text>
<text class="t" x="388.2" y="282" text-anchor="middle">Mar</text>
<text class="t" x="465.5" y="282" text-anchor="middle">Apr</text>
<text class="t" x="527.3" y="282" text-anchor="middle">May</text>
<text class="t" x="604.6" y="282" text-anchor="middle">Jun</text>
<text class="t" x="666.5" y="282" text-anchor="middle">Jul</text>
<text class="t" x="728.3" y="282" text-anchor="middle">Aug</text>
<text class="t" x="805.6" y="282" text-anchor="middle">Sep</text>
<path class="fade" d="M48.0,260.0 C55.7,260.0 55.7,260.0 63.5,260.0 C71.2,260.0 71.2,260.0 78.9,260.0 C86.7,260.0 86.7,260.0 94.4,260.0 C102.1,260.0 102.1,260.0 109.8,260.0 C117.6,260.0 117.6,260.0 125.3,260.0 C133.0,260.0 133.0,260.0 140.8,260.0 C148.5,260.0 148.5,260.0 156.2,260.0 C164.0,260.0 164.0,260.0 171.7,260.0 C179.4,260.0 179.4,260.0 187.2,260.0 C194.9,260.0 194.9,260.0 202.6,260.0 C210.3,260.0 210.3,260.0 218.1,260.0 C225.8,260.0 225.8,260.0 233.5,260.0 C241.3,260.0 241.3,260.0 249.0,260.0 C256.7,260.0 256.7,259.4 264.5,259.4 C272.2,259.4 272.2,260.0 279.9,260.0 C287.7,260.0 287.7,260.0 295.4,260.0 C303.1,260.0 303.1,259.8 310.8,259.8 C318.6,259.8 318.6,260.0 326.3,260.0 C334.0,260.0 334.0,259.8 341.8,259.8 C349.5,259.8 349.5,260.0 357.2,260.0 C365.0,260.0 365.0,260.0 372.7,260.0 C380.4,260.0 380.4,260.0 388.2,260.0 C395.9,260.0 395.9,260.0 403.6,260.0 C411.3,260.0 411.3,260.0 419.1,260.0 C426.8,260.0 426.8,260.0 434.5,260.0 C442.3,260.0 442.3,260.0 450.0,260.0 C457.7,260.0 457.7,260.0 465.5,260.0 C473.2,260.0 473.2,260.0 480.9,260.0 C488.7,260.0 488.7,259.8 496.4,259.8 C504.1,259.8 504.1,257.8 511.8,257.8 C519.6,257.8 519.6,256.4 527.3,256.4 C535.0,256.4 535.0,237.0 542.8,237.0 C550.5,237.0 550.5,179.0 558.2,179.0 C566.0,179.0 566.0,187.2 573.7,187.2 C581.4,187.2 581.4,183.6 589.2,183.6 C596.9,183.6 596.9,199.2 604.6,199.2 C612.3,199.2 612.3,210.6 620.1,210.6 C627.8,210.6 627.8,223.4 635.5,223.4 C643.3,223.4 643.3,201.6 651.0,201.6 C658.7,201.6 658.7,171.4 666.5,171.4 C674.2,171.4 674.2,163.2 681.9,163.2 C689.7,163.2 689.7,217.2 697.4,217.2 C705.1,217.2 705.1,235.6 712.8,235.6 C720.6,235.6 720.6,190.0 728.3,190.0 C736.0,190.0 736.0,161.4 743.8,161.4 C751.5,161.4 751.5,147.4 759.2,147.4 C767.0,147.4 767.0,165.0 774.7,165.0 C782.4,165.0 782.4,211.0 790.2,211.0 C797.9,211.0 797.9,123.4 805.6,123.4 C813.3,123.4 813.3,136.2 821.1,136.2 C828.8,136.2 828.8,118.0 836.5,118.0 C844.3,118.0 844.3,193.0 852.0,193.0 L852.0,260 L48.0,260 Z" fill="url(#fill)"/>
<path class="line" d="M48.0,260.0 C55.7,260.0 55.7,260.0 63.5,260.0 C71.2,260.0 71.2,260.0 78.9,260.0 C86.7,260.0 86.7,260.0 94.4,260.0 C102.1,260.0 102.1,260.0 109.8,260.0 C117.6,260.0 117.6,260.0 125.3,260.0 C133.0,260.0 133.0,260.0 140.8,260.0 C148.5,260.0 148.5,260.0 156.2,260.0 C164.0,260.0 164.0,260.0 171.7,260.0 C179.4,260.0 179.4,260.0 187.2,260.0 C194.9,260.0 194.9,260.0 202.6,260.0 C210.3,260.0 210.3,260.0 218.1,260.0 C225.8,260.0 225.8,260.0 233.5,260.0 C241.3,260.0 241.3,260.0 249.0,260.0 C256.7,260.0 256.7,259.4 264.5,259.4 C272.2,259.4 272.2,260.0 279.9,260.0 C287.7,260.0 287.7,260.0 295.4,260.0 C303.1,260.0 303.1,259.8 310.8,259.8 C318.6,259.8 318.6,260.0 326.3,260.0 C334.0,260.0 334.0,259.8 341.8,259.8 C349.5,259.8 349.5,260.0 357.2,260.0 C365.0,260.0 365.0,260.0 372.7,260.0 C380.4,260.0 380.4,260.0 388.2,260.0 C395.9,260.0 395.9,260.0 403.6,260.0 C411.3,260.0 411.3,260.0 419.1,260.0 C426.8,260.0 426.8,260.0 434.5,260.0 C442.3,260.0 442.3,260.0 450.0,260.0 C457.7,260.0 457.7,260.0 465.5,260.0 C473.2,260.0 473.2,260.0 480.9,260.0 C488.7,260.0 488.7,259.8 496.4,259.8 C504.1,259.8 504.1,257.8 511.8,257.8 C519.6,257.8 519.6,256.4 527.3,256.4 C535.0,256.4 535.0,237.0 542.8,237.0 C550.5,237.0 550.5,179.0 558.2,179.0 C566.0,179.0 566.0,187.2 573.7,187.2 C581.4,187.2 581.4,183.6 589.2,183.6 C596.9,183.6 596.9,199.2 604.6,199.2 C612.3,199.2 612.3,210.6 620.1,210.6 C627.8,210.6 627.8,223.4 635.5,223.4 C643.3,223.4 643.3,201.6 651.0,201.6 C658.7,201.6 658.7,171.4 666.5,171.4 C674.2,171.4 674.2,163.2 681.9,163.2 C689.7,163.2 689.7,217.2 697.4,217.2 C705.1,217.2 705.1,235.6 712.8,235.6 C720.6,235.6 720.6,190.0 728.3,190.0 C736.0,190.0 736.0,161.4 743.8,161.4 C751.5,161.4 751.5,147.4 759.2,147.4 C767.0,147.4 767.0,165.0 774.7,165.0 C782.4,165.0 782.4,211.0 790.2,211.0 C797.9,211.0 797.9,123.4 805.6,123.4 C813.3,123.4 813.3,136.2 821.1,136.2 C828.8,136.2 828.8,118.0 836.5,118.0 C844.3,118.0 844.3,193.0 852.0,193.0" fill="none" stroke="url(#stroke)" stroke-width="2.5" stroke-linecap="round"/>
<g class="fade"><circle cx="836.5" cy="118.0" r="4.5" fill="#ffffff" stroke="#5757d6" stroke-width="2"/><text class="t" x="826.5" y="122.0" text-anchor="end">peak week · 710</text></g>
<text class="t" x="48" y="104">contributions / week</text>
</svg>